<svg width="17" height="19" viewBox="0 0 17 19" fill="none" xmlns="http://www.w3.org/2000/svg">
    <path d="M0.785645 4.35728H16.2142M5.07136 4.35728V2.643C5.07136 2.18834 5.25197 1.7523 5.57346 1.43081C5.89495 1.10932 6.33099 0.928711 6.78565 0.928711H10.2142C10.6689 0.928711 11.1049 1.10932 11.4264 1.43081C11.7479 1.7523 11.9285 2.18834 11.9285 2.643V4.35728M14.4999 4.35728V16.3573C14.4999 16.8119 14.3193 17.248 13.9978 17.5695C13.6763 17.891 13.2403 18.0716 12.7856 18.0716H4.21422C3.75956 18.0716 3.32352 17.891 3.00203 17.5695C2.68054 17.248 2.49993 16.8119 2.49993 16.3573V4.35728H14.4999Z" stroke="#000000FF" stroke-linecap="round" stroke-linejoin="round"/>
</svg>
